<svg width="46" height="286" viewBox="0 0 46 286" fill="none" xmlns="http://www.w3.org/2000/svg">
<path d="M0 0H42C44.2091 0 46 1.79086 46 4V282C46 284.209 44.2091 286 42 286H0V0Z" fill="#FBEAE9"/>
<path d="M30.5459 142.954C30.7572 143.165 30.876 143.452 30.876 143.751C30.876 144.05 30.7572 144.336 30.5459 144.548C30.3346 144.759 30.0479 144.878 29.749 144.878C29.4501 144.878 29.1635 144.759 28.9521 144.548L23 138.594L17.0459 144.546C16.8346 144.757 16.5479 144.876 16.249 144.876C15.9501 144.876 15.6635 144.757 15.4521 144.546C15.2408 144.335 15.1221 144.048 15.1221 143.749C15.1221 143.45 15.2408 143.163 15.4521 142.952L21.4062 137L15.454 131.046C15.2427 130.835 15.1239 130.548 15.1239 130.249C15.1239 129.95 15.2427 129.663 15.454 129.452C15.6654 129.241 15.952 129.122 16.2509 129.122C16.5498 129.122 16.8364 129.241 17.0478 129.452L23 135.406L28.954 129.451C29.1654 129.24 29.452 129.121 29.7509 129.121C30.0498 129.121 30.3364 129.24 30.5478 129.451C30.7591 129.663 30.8778 129.949 30.8778 130.248C30.8778 130.547 30.7591 130.834 30.5478 131.045L24.5937 137L30.5459 142.954Z" fill="#9E0A05"/>
</svg>
